<?xml version="1.0" encoding="utf-8"?>
<!-- Generator: Adobe Illustrator 16.0.4, SVG Export Plug-In . SVG Version: 6.00 Build 0)  -->
<!DOCTYPE svg PUBLIC "-//W3C//DTD SVG 1.1//EN" "http://www.w3.org/Graphics/SVG/1.1/DTD/svg11.dtd">
<svg version="1.1" id="Ebene_1" xmlns="http://www.w3.org/2000/svg" xmlns:xlink="http://www.w3.org/1999/xlink" x="0px" y="0px"
	 width="200px" height="200px" viewBox="0 0 200 200" style="enable-background:new 0 0 200 200;" xml:space="preserve">
<style type="text/css">
<![CDATA[
	.st0{fill:#EFEFEF;}
	.st1{opacity:0.2;enable-background:new    ;}
	.st2{fill:#999999;}
	.st3{opacity:0.65;fill:#FFFFFF;enable-background:new    ;}
	.st4{display:none;}
]]>
</style>
<path class="st0" d="M25,0v200h150V50L125,0H25z"/>
<path class="st3" d="M125,49.8V0l50,50L125,49.8z"/>
<path class="st1" d="M162.5,62.5V125l-50-62.5H162.5z"/>
<path class="st2" d="M25,0v200h150V50h-0.2l0.1-0.1L125.1,0.1L125,0.2V0H25z M37.5,12.5h75v50h50v125h-125V12.5z M125,17.6L157.3,50
	H125V17.6z"/>
<path class="st4" d="M139.3,122.1h-4.2c-1.1,0-2.5-1-2.9-2.3c-0.4-1.1-0.9-2.3-1.4-3.4c-0.6-1.2-0.4-2.8,0.5-3.6l3-3
	c2.1-2.1,2.1-5.5,0-7.6l-4.9-4.9c-1-1-2.4-1.6-3.8-1.6c-1.4,0-2.8,0.6-3.8,1.6l-3,3c-0.5,0.5-1.3,0.8-2.2,0.8
	c-0.5,0-1.1-0.1-1.5-0.3c-1.1-0.5-2.2-1-3.4-1.4c-1.2-0.4-2.3-1.8-2.3-2.9v-4.2c0-3-2.4-5.4-5.4-5.4h-6.9c-3,0-5.4,2.4-5.4,5.4v4.2
	c0,1.1-1,2.5-2.3,2.9c-1.1,0.4-2.3,0.9-3.4,1.4c-0.4,0.2-1,0.3-1.5,0.3c-0.9,0-1.7-0.3-2.2-0.8l-3-3c-1-1-2.4-1.6-3.8-1.6
	c-1.4,0-2.8,0.6-3.8,1.6l-4.9,4.9c-1,1-1.6,2.4-1.6,3.8c0,1.4,0.6,2.8,1.6,3.8l3,3c0.8,0.8,1,2.5,0.5,3.6c-0.5,1.1-1,2.2-1.4,3.4
	c-0.4,1.2-1.8,2.3-2.9,2.3h-4.2c-3,0-5.4,2.4-5.4,5.4v6.9c0,3,2.4,5.4,5.4,5.4h4.2c1.1,0,2.5,1,2.9,2.3c0.4,1.1,0.9,2.3,1.4,3.4
	c0.6,1.2,0.4,2.8-0.5,3.6l-3,3c-2.1,2.1-2.1,5.5,0,7.6l4.9,4.9c1,1,2.4,1.6,3.8,1.6c1.4,0,2.8-0.6,3.8-1.6l3-3
	c0.5-0.5,1.3-0.8,2.2-0.8c0.5,0,1.1,0.1,1.5,0.3c1.1,0.5,2.2,1,3.4,1.4c1.2,0.4,2.3,1.8,2.3,2.9v4.2c0,3,2.4,5.4,5.4,5.4h6.9
	c3,0,5.4-2.4,5.4-5.4v-4.2c0-1.1,1-2.5,2.3-2.9c1.1-0.4,2.3-0.9,3.4-1.4c0.4-0.2,0.9-0.3,1.5-0.3c0.9,0,1.7,0.3,2.2,0.8l3,3
	c1,1,2.4,1.6,3.8,1.6c1.4,0,2.8-0.6,3.8-1.6l4.9-4.9c2.1-2.1,2.1-5.5,0-7.6l-3-3c-0.8-0.8-1-2.5-0.5-3.6c0.5-1.1,1-2.2,1.4-3.4
	c0.4-1.2,1.8-2.3,2.9-2.3h4.2c3,0,5.4-2.4,5.4-5.4v-6.9C144.7,124.6,142.3,122.1,139.3,122.1L139.3,122.1z M116.4,131
	c0,8.7-7.1,15.8-15.8,15.8s-15.8-7.1-15.8-15.8c0-8.7,7.1-15.8,15.8-15.8C109.3,115.2,116.4,122.3,116.4,131L116.4,131z"/>
<g>
	<path d="M134.6,87c9.7,9.7,15,22.5,15,36.2c0,13.7-5.3,26.5-15,36.2c-9.7,9.7-22.5,15-36.2,15c-13.7,0-26.5-5.3-36.2-15
		c-9.7-9.7-15-22.5-15-36.2c0-13.7,5.3-26.5,15-36.2c9.7-9.7,22.5-15,36.2-15C112,72,124.9,77.4,134.6,87L134.6,87z M130,154.9
		c6.3-6.3,10.5-14.2,12.2-22.7c-1.3,2-2.6,2.7-3.4-1.7c-0.8-7.2-7.5-2.6-11.7-5.2c-4.4,3-14.3-5.8-12.6,4.1c2.6,4.4,14-5.9,8.3,3.5
		c-3.6,6.6-13.3,21.1-12,28.6c0.2,11-11.2,2.3-15.1-1.4c-2.6-7.3-0.9-20-7.8-23.6c-7.5-0.3-13.9-1-16.8-9.4
		c-1.7-6,1.9-14.9,8.3-16.3c9.4-5.9,12.7,6.9,21.5,7.1c2.7-2.9,10.2-3.8,10.8-7c-5.8-1,7.3-4.9-0.6-7c-4.3,0.5-7.1,4.5-4.8,7.9
		c-8.4,2-8.7-12.2-16.8-7.7c-0.2,7.1-13.2,2.3-4.5,0.9c3-1.3-4.9-5.1-0.6-4.4c2.1-0.1,9.1-2.6,7.2-4.2c3.9-2.4,7.2,5.8,11.1-0.2
		c2.8-4.6-1.2-5.5-4.6-3.1c-2-2.2,3.5-6.9,8.2-9c1.6-0.7,3.1-1.1,4.3-0.9c2.4,2.8,6.9,3.3,7.1-0.3c-6-2.9-12.5-4.4-19.3-4.4
		c-9.8,0-19.1,3.1-26.7,8.8c2.1,0.9,3.2,2.1,1.2,3.6c-1.5,4.6-7.8,10.8-13.3,9.9c-2.9,4.9-4.7,10.4-5.5,16.1
		c4.6,1.5,5.7,4.5,4.7,5.6c-2.4,2-3.8,5-4.5,8.1c1.5,9.2,5.8,17.7,12.5,24.4c8.5,8.5,19.7,13.1,31.7,13.1
		C110.3,168.1,121.6,163.4,130,154.9L130,154.9z M130,154.9"/>
</g>
</svg>
